<svg xmlns="http://www.w3.org/2000/svg" xmlns:cc="http://web.resource.org/cc/" xmlns:svg="http://www.w3.org/2000/svg" id="svg5707" width="800" height="450" version="1.0"><defs id="defs5709"><marker id="Arrow2Lend" orient="auto" refX="0" refY="0" style="overflow:visible"><path id="path3504" d="M 8.7185878,4.0337352 L -2.2072895,0.016013256 L 8.7185884,-4.0017078 C 6.9730900,-1.6296469 6.9831476,1.6157441 8.7185878,4.0337352 z" transform="scale(1.1) rotate(180) translate(1,0)" style="font-size:12;fill-rule:evenodd;stroke-width:.625;stroke-linejoin:round"/></marker></defs><metadata id="metadata5712"/><g id="layer1"><path style="fill:#fc0;fill-opacity:1;fill-rule:evenodd;stroke:#000;stroke-width:.66122991;stroke-linecap:butt;stroke-linejoin:miter;stroke-miterlimit:4;stroke-dasharray:none;stroke-dashoffset:0;stroke-opacity:1" id="path2231" d="M 181.20262,220.81676 L 181.20262,208.77238 C 181.20262,202.94963 185.89024,198.26199 191.71299,198.26199 L 191.71299,198.26199 L 282.57268,198.26199 C 288.39543,198.26199 293.08308,202.94963 293.08308,208.77238 L 293.08308,220.81677 L 292.58212,220.80508 L 181.20262,220.81676 z"/><path style="fill:none;fill-opacity:1;fill-rule:evenodd;stroke:#000;stroke-width:.66122991;stroke-linecap:butt;stroke-linejoin:miter;stroke-miterlimit:4;stroke-dasharray:none;stroke-dashoffset:0;stroke-opacity:1" id="rect2162" d="M 293.08308,220.98376 L 293.08308,299.79905 C 293.08308,305.62181 288.39544,310.30944 282.57269,310.30944 L 191.71301,310.30943 C 185.89025,310.30944 181.20262,305.62181 181.20262,299.79905 L 181.20262,220.98375"/><text style="font-size:14.54705811px;font-style:normal;font-weight:700;fill:#000;fill-opacity:1;stroke:none;stroke-width:1px;stroke-linecap:butt;stroke-linejoin:miter;stroke-opacity:1;font-family:DejaVu Sans Mono" id="text2241" x="210.258" y="214.794" xml:space="preserve"><tspan id="tspan2243" x="210.258" y="214.794">dentry</tspan></text><text style="font-size:18px;font-style:normal;font-weight:700;fill:#000;fill-opacity:1;stroke:none;stroke-width:1px;stroke-linecap:butt;stroke-linejoin:miter;stroke-opacity:1;font-family:DejaVu Sans Mono" id="text5723" x="273.571" y="93.571" xml:space="preserve"><tspan id="tspan5725" x="273.571" y="93.571">/home/jen/work/file.txt</tspan></text><path style="fill:#fc0;fill-opacity:1;fill-rule:evenodd;stroke:#000;stroke-width:.66122991;stroke-linecap:butt;stroke-linejoin:miter;stroke-miterlimit:4;stroke-dasharray:none;stroke-dashoffset:0;stroke-opacity:1" id="path5727" d="M 337.6312,220.81676 L 337.6312,208.77238 C 337.6312,202.94963 342.31882,198.26199 348.14157,198.26199 L 348.14157,198.26199 L 439.00126,198.26199 C 444.82401,198.26199 449.51166,202.94963 449.51166,208.77238 L 449.51166,220.81677 L 449.0107,220.80508 L 337.6312,220.81676 z"/><path style="fill:none;fill-opacity:1;fill-rule:evenodd;stroke:#000;stroke-width:.66122991;stroke-linecap:butt;stroke-linejoin:miter;stroke-miterlimit:4;stroke-dasharray:none;stroke-dashoffset:0;stroke-opacity:1" id="path5729" d="M 449.51166,220.98376 L 449.51166,299.79905 C 449.51166,305.62181 444.82402,310.30944 439.00127,310.30944 L 348.14159,310.30943 C 342.31883,310.30944 337.6312,305.62181 337.6312,299.79905 L 337.6312,220.98375"/><text style="font-size:14.54705811px;font-style:normal;font-weight:700;fill:#000;fill-opacity:1;stroke:none;stroke-width:1px;stroke-linecap:butt;stroke-linejoin:miter;stroke-opacity:1;font-family:DejaVu Sans Mono" id="text5731" x="366.687" y="214.794" xml:space="preserve"><tspan id="tspan5733" x="366.687" y="214.794">dentry</tspan></text><path style="fill:#fc0;fill-opacity:1;fill-rule:evenodd;stroke:#000;stroke-width:.66122991;stroke-linecap:butt;stroke-linejoin:miter;stroke-miterlimit:4;stroke-dasharray:none;stroke-dashoffset:0;stroke-opacity:1" id="path5735" d="M 24.05977,219.38819 L 24.05977,207.34381 C 24.05977,201.52106 28.74739,196.83342 34.57014,196.83342 L 34.57014,196.83342 L 125.42983,196.83342 C 131.25258,196.83342 135.94023,201.52106 135.94023,207.34381 L 135.94023,219.3882 L 135.43927,219.37651 L 24.05977,219.38819 z"/><path style="fill:none;fill-opacity:1;fill-rule:evenodd;stroke:#000;stroke-width:.66122991;stroke-linecap:butt;stroke-linejoin:miter;stroke-miterlimit:4;stroke-dasharray:none;stroke-dashoffset:0;stroke-opacity:1" id="path5737" d="M 135.94023,219.55519 L 135.94023,298.37048 C 135.94023,304.19324 131.25259,308.88087 125.42984,308.88087 L 34.57016,308.88086 C 28.7474,308.88087 24.05977,304.19324 24.05977,298.37048 L 24.05977,219.55518"/><text style="font-size:14.54705811px;font-style:normal;font-weight:700;fill:#000;fill-opacity:1;stroke:none;stroke-width:1px;stroke-linecap:butt;stroke-linejoin:miter;stroke-opacity:1;font-family:DejaVu Sans Mono" id="text5739" x="53.115" y="213.365" xml:space="preserve"><tspan id="tspan5741" x="53.115" y="213.365">dentry</tspan></text><path style="fill:#fc0;fill-opacity:1;fill-rule:evenodd;stroke:#000;stroke-width:.66122991;stroke-linecap:butt;stroke-linejoin:miter;stroke-miterlimit:4;stroke-dasharray:none;stroke-dashoffset:0;stroke-opacity:1" id="path5743" d="M 503.34549,220.81676 L 503.34549,208.77238 C 503.34549,202.94963 508.03311,198.26199 513.85586,198.26199 L 513.85586,198.26199 L 604.71555,198.26199 C 610.5383,198.26199 615.22595,202.94963 615.22595,208.77238 L 615.22595,220.81677 L 614.72499,220.80508 L 503.34549,220.81676 z"/><path style="fill:none;fill-opacity:1;fill-rule:evenodd;stroke:#000;stroke-width:.66122991;stroke-linecap:butt;stroke-linejoin:miter;stroke-miterlimit:4;stroke-dasharray:none;stroke-dashoffset:0;stroke-opacity:1" id="path5745" d="M 615.22595,220.98376 L 615.22595,299.79905 C 615.22595,305.62181 610.53831,310.30944 604.71556,310.30944 L 513.85588,310.30943 C 508.03312,310.30944 503.34549,305.62181 503.34549,299.79905 L 503.34549,220.98375"/><text style="font-size:14.54705811px;font-style:normal;font-weight:700;fill:#000;fill-opacity:1;stroke:none;stroke-width:1px;stroke-linecap:butt;stroke-linejoin:miter;stroke-opacity:1;font-family:DejaVu Sans Mono" id="text5747" x="532.401" y="214.794" xml:space="preserve"><tspan id="tspan5749" x="532.401" y="214.794">dentry</tspan></text><path style="fill:#fc0;fill-opacity:1;fill-rule:evenodd;stroke:#000;stroke-width:.66122991;stroke-linecap:butt;stroke-linejoin:miter;stroke-miterlimit:4;stroke-dasharray:none;stroke-dashoffset:0;stroke-opacity:1" id="path5751" d="M 654.05978,220.10247 L 654.05978,208.05809 C 654.05978,202.23534 658.7474,197.5477 664.57015,197.5477 L 664.57015,197.5477 L 755.42984,197.5477 C 761.25259,197.5477 765.94024,202.23534 765.94024,208.05809 L 765.94024,220.10248 L 765.43928,220.09079 L 654.05978,220.10247 z"/><path style="fill:none;fill-opacity:1;fill-rule:evenodd;stroke:#000;stroke-width:.66122991;stroke-linecap:butt;stroke-linejoin:miter;stroke-miterlimit:4;stroke-dasharray:none;stroke-dashoffset:0;stroke-opacity:1" id="path5753" d="M 765.94024,220.26947 L 765.94024,299.08476 C 765.94024,304.90752 761.2526,309.59515 755.42985,309.59515 L 664.57017,309.59514 C 658.74741,309.59515 654.05978,304.90752 654.05978,299.08476 L 654.05978,220.26946"/><text style="font-size:14.54705811px;font-style:normal;font-weight:700;fill:#000;fill-opacity:1;stroke:none;stroke-width:1px;stroke-linecap:butt;stroke-linejoin:miter;stroke-opacity:1;font-family:DejaVu Sans Mono" id="text5755" x="683.115" y="214.079" xml:space="preserve"><tspan id="tspan5757" x="683.115" y="214.079">dentry</tspan></text><text style="font-size:18px;font-style:normal;font-weight:700;fill:#000;fill-opacity:1;stroke:none;stroke-width:1px;stroke-linecap:butt;stroke-linejoin:miter;stroke-opacity:1;font-family:DejaVu Sans Mono" id="text5759" x="67.143" y="257.143" xml:space="preserve"><tspan id="tspan5761" x="67.143" y="257.143">/</tspan></text><text style="font-size:18px;font-style:normal;font-weight:700;fill:#000;fill-opacity:1;stroke:none;stroke-width:1px;stroke-linecap:butt;stroke-linejoin:miter;stroke-opacity:1;font-family:DejaVu Sans Mono" id="text5763" x="215.714" y="258.571" xml:space="preserve"><tspan id="tspan5765" x="215.714" y="258.571">home</tspan></text><text style="font-size:18px;font-style:normal;font-weight:700;fill:#000;fill-opacity:1;stroke:none;stroke-width:1px;stroke-linecap:butt;stroke-linejoin:miter;stroke-opacity:1;font-family:DejaVu Sans Mono" id="text5767" x="374.286" y="262.857" xml:space="preserve"><tspan id="tspan5769" x="374.286" y="262.857">jen</tspan></text><text style="font-size:18px;font-style:normal;font-weight:700;fill:#000;fill-opacity:1;stroke:none;stroke-width:1px;stroke-linecap:butt;stroke-linejoin:miter;stroke-opacity:1;font-family:DejaVu Sans Mono" id="text5771" x="536.429" y="263.571" xml:space="preserve"><tspan id="tspan5773" x="536.429" y="263.571">work</tspan></text><text style="font-size:18px;font-style:normal;font-weight:700;fill:#000;fill-opacity:1;stroke:none;stroke-width:1px;stroke-linecap:butt;stroke-linejoin:miter;stroke-opacity:1;font-family:DejaVu Sans Mono" id="text5775" x="668.571" y="265" xml:space="preserve"><tspan id="tspan5777" x="668.571" y="265">file.txt</tspan></text><path style="fill:none;fill-rule:evenodd;stroke:#000;stroke-width:1px;stroke-linecap:butt;stroke-linejoin:miter;stroke-opacity:1;marker-end:url(#Arrow2Lend)" id="path5779" d="M 272.85714,97.857142 L 79.285714,195.71429"/><path style="fill:none;fill-rule:evenodd;stroke:#000;stroke-width:1px;stroke-linecap:butt;stroke-linejoin:miter;stroke-opacity:1;marker-end:url(#Arrow2Lend)" id="path5781" d="M 303.57143,95.714285 L 237.85714,197.14286"/><path style="fill:none;fill-rule:evenodd;stroke:#000;stroke-width:1px;stroke-linecap:butt;stroke-linejoin:miter;stroke-opacity:1;marker-end:url(#Arrow2Lend)" id="path5783" d="M 351.42857,95.714285 L 385.71429,196.42857"/><path style="fill:none;fill-rule:evenodd;stroke:#000;stroke-width:1px;stroke-linecap:butt;stroke-linejoin:miter;stroke-opacity:1;marker-end:url(#Arrow2Lend)" id="path5785" d="M 405.71429,96.428571 L 556.42857,197.14286"/><path style="fill:none;fill-rule:evenodd;stroke:#000;stroke-width:1px;stroke-linecap:butt;stroke-linejoin:miter;stroke-opacity:1;marker-end:url(#Arrow2Lend)" id="path5787" d="M 475.71429,96.428571 L 707.14286,195.71429"/></g></svg>