<svg xmlns="http://www.w3.org/2000/svg" xmlns:cc="http://web.resource.org/cc/" xmlns:svg="http://www.w3.org/2000/svg" id="svg2407" width="800" height="450" version="1.0"><defs id="defs2409"><marker id="Arrow2Lend" orient="auto" refX="0" refY="0" style="overflow:visible"><path id="path3504" d="M 8.7185878,4.0337352 L -2.2072895,0.016013256 L 8.7185884,-4.0017078 C 6.9730900,-1.6296469 6.9831476,1.6157441 8.7185878,4.0337352 z" transform="scale(1.1) rotate(180) translate(1,0)" style="font-size:12;fill-rule:evenodd;stroke-width:.625;stroke-linejoin:round"/></marker></defs><metadata id="metadata2412"/><g id="layer1"><path style="fill:#55d400;fill-opacity:1;fill-rule:evenodd;stroke:#000;stroke-width:.66122991;stroke-linecap:butt;stroke-linejoin:miter;stroke-miterlimit:4;stroke-dasharray:none;stroke-dashoffset:0;stroke-opacity:1" id="path2249" d="M 61.20263,72.245332 L 61.20263,60.200942 C 61.20263,54.378192 65.89026,49.690562 71.713017,49.690562 L 71.713017,49.690562 L 162.57269,49.690562 C 168.39544,49.690562 173.08308,54.378192 173.08308,60.200952 L 173.08308,72.245332 L 172.58213,72.233652 L 61.20263,72.245332 z"/><path style="fill:none;fill-opacity:1;fill-rule:evenodd;stroke:#000;stroke-width:.66122991;stroke-linecap:butt;stroke-linejoin:miter;stroke-miterlimit:4;stroke-dasharray:none;stroke-dashoffset:0;stroke-opacity:1" id="path2251" d="M 173.08308,72.412332 L 173.08308,151.22761 C 173.08308,157.05037 168.39545,161.738 162.57269,161.738 L 71.713017,161.73799 C 65.89026,161.738 61.20263,157.05037 61.20263,151.22761 L 61.20263,72.412322"/><text style="font-size:14.54705811px;font-style:normal;font-weight:700;fill:#000;fill-opacity:1;stroke:none;stroke-width:1px;stroke-linecap:butt;stroke-linejoin:miter;stroke-opacity:1;font-family:DejaVu Sans Mono" id="text2253" x="97.606" y="65.888" xml:space="preserve"><tspan id="tspan2255" x="97.606" y="65.888">file</tspan></text><text style="font-size:11.56725216px;font-style:normal;font-weight:700;fill:#000;fill-opacity:1;stroke:none;stroke-width:1px;stroke-linecap:butt;stroke-linejoin:miter;stroke-opacity:1;font-family:DejaVu Sans Mono" id="text7582" x="87.005" y="96.611" xml:space="preserve"><tspan id="tspan7584" x="87.005" y="96.611">f_dentry</tspan></text><path style="fill:#fc0;fill-opacity:1;fill-rule:evenodd;stroke:#000;stroke-width:.66122991;stroke-linecap:butt;stroke-linejoin:miter;stroke-miterlimit:4;stroke-dasharray:none;stroke-dashoffset:0;stroke-opacity:1" id="path2231" d="M 295.48834,72.24533 L 295.48834,60.20095 C 295.48834,54.3782 300.17596,49.69056 305.99871,49.69056 L 305.99871,49.69056 L 396.8584,49.69056 C 402.68115,49.69056 407.3688,54.3782 407.3688,60.20095 L 407.3688,72.24534 L 406.86784,72.23365 L 295.48834,72.24533 z"/><path style="fill:none;fill-opacity:1;fill-rule:evenodd;stroke:#000;stroke-width:.66122991;stroke-linecap:butt;stroke-linejoin:miter;stroke-miterlimit:4;stroke-dasharray:none;stroke-dashoffset:0;stroke-opacity:1" id="rect2162" d="M 407.3688,72.41233 L 407.3688,151.22762 C 407.3688,157.05038 402.68116,161.73801 396.85841,161.73801 L 305.99873,161.738 C 300.17597,161.73801 295.48834,157.05038 295.48834,151.22762 L 295.48834,72.41232"/><text style="font-size:14.54705811px;font-style:normal;font-weight:700;fill:#000;fill-opacity:1;stroke:none;stroke-width:1px;stroke-linecap:butt;stroke-linejoin:miter;stroke-opacity:1;font-family:DejaVu Sans Mono" id="text2241" x="324.544" y="66.222" xml:space="preserve"><tspan id="tspan2243" x="324.544" y="66.222">dentry</tspan></text><text style="font-size:11.56725216px;font-style:normal;font-weight:700;fill:#000;fill-opacity:1;stroke:none;stroke-width:1px;stroke-linecap:butt;stroke-linejoin:miter;stroke-opacity:1;font-family:DejaVu Sans Mono" id="text8557" x="323.849" y="95.283" xml:space="preserve"><tspan id="tspan8559" x="323.849" y="95.283">d_inode</tspan></text><path style="fill:#80b3ff;fill-opacity:1;fill-rule:evenodd;stroke:#000;stroke-width:.66122991;stroke-linecap:butt;stroke-linejoin:miter;stroke-miterlimit:4;stroke-dasharray:none;stroke-dashoffset:0;stroke-opacity:1" id="path2259" d="M 536.20264,72.959607 L 536.20264,60.915237 C 536.20264,55.092477 540.89027,50.404847 546.71303,50.404847 L 546.71303,50.404847 L 637.5727,50.404847 C 643.39546,50.404847 648.08308,55.092477 648.08308,60.915237 L 648.08308,72.959627 L 647.58213,72.947917 L 536.20264,72.959607 z"/><path style="fill:none;fill-opacity:1;fill-rule:evenodd;stroke:#000;stroke-width:.66122991;stroke-linecap:butt;stroke-linejoin:miter;stroke-miterlimit:4;stroke-dasharray:none;stroke-dashoffset:0;stroke-opacity:1" id="path2261" d="M 648.08309,73.126607 L 648.08308,151.94189 C 648.08309,157.76465 643.39547,162.45228 637.57271,162.45228 L 546.71304,162.45227 C 540.89028,162.45228 536.20264,157.76465 536.20264,151.94189 L 536.20264,73.126587"/><text style="font-size:14.54705811px;font-style:normal;font-weight:700;fill:#000;fill-opacity:1;stroke:none;stroke-width:1px;stroke-linecap:butt;stroke-linejoin:miter;stroke-opacity:1;font-family:DejaVu Sans Mono" id="text2263" x="568.932" y="66.937" xml:space="preserve"><tspan id="tspan2265" x="568.932" y="66.937">inode</tspan></text><path style="fill:none;fill-rule:evenodd;stroke:#000;stroke-width:1px;stroke-linecap:butt;stroke-linejoin:miter;stroke-opacity:1;marker-end:url(#Arrow2Lend)" id="path2507" d="M 146.42857,93.571428 L 294.28571,92.857142"/><path style="fill:none;fill-rule:evenodd;stroke:#000;stroke-width:1px;stroke-linecap:butt;stroke-linejoin:miter;stroke-opacity:1;marker-end:url(#Arrow2Lend)" id="path2509" d="M 375.71429,91.428571 L 535,91.428571"/><path style="fill:#55d400;fill-opacity:1;fill-rule:evenodd;stroke:#000;stroke-width:.66122991;stroke-linecap:butt;stroke-linejoin:miter;stroke-miterlimit:4;stroke-dasharray:none;stroke-dashoffset:0;stroke-opacity:1" id="path3678" d="M 171.55977,290.45963 L 171.55977,278.41524 C 171.55977,272.59249 176.2474,267.90486 182.07016,267.90486 L 182.07016,267.90486 L 272.92983,267.90486 C 278.75258,267.90486 283.44022,272.59249 283.44022,278.41525 L 283.44022,290.45963 L 282.93927,290.44795 L 171.55977,290.45963 z"/><path style="fill:none;fill-opacity:1;fill-rule:evenodd;stroke:#000;stroke-width:.66122991;stroke-linecap:butt;stroke-linejoin:miter;stroke-miterlimit:4;stroke-dasharray:none;stroke-dashoffset:0;stroke-opacity:1" id="path3680" d="M 283.44022,290.62663 L 283.44022,369.44191 C 283.44022,375.26467 278.75259,379.9523 272.92983,379.9523 L 182.07016,379.95229 C 176.2474,379.9523 171.55977,375.26467 171.55977,369.44191 L 171.55977,290.62662"/><text style="font-size:14.54705811px;font-style:normal;font-weight:700;fill:#000;fill-opacity:1;stroke:none;stroke-width:1px;stroke-linecap:butt;stroke-linejoin:miter;stroke-opacity:1;font-family:DejaVu Sans Mono" id="text3682" x="207.963" y="284.102" xml:space="preserve"><tspan id="tspan3684" x="207.963" y="284.102">file</tspan></text><text style="font-size:11.56725216px;font-style:normal;font-weight:700;fill:#000;fill-opacity:1;stroke:none;stroke-width:1px;stroke-linecap:butt;stroke-linejoin:miter;stroke-opacity:1;font-family:DejaVu Sans Mono" id="text3686" x="197.362" y="314.825" xml:space="preserve"><tspan id="tspan3688" x="197.362" y="314.825">f_dentry</tspan></text><path style="fill:#fc0;fill-opacity:1;fill-rule:evenodd;stroke:#000;stroke-width:.66122991;stroke-linecap:butt;stroke-linejoin:miter;stroke-miterlimit:4;stroke-dasharray:none;stroke-dashoffset:0;stroke-opacity:1" id="path3690" d="M 405.84548,290.45963 L 405.84548,278.41525 C 405.84548,272.5925 410.5331,267.90486 416.35585,267.90486 L 416.35585,267.90486 L 507.21554,267.90486 C 513.03829,267.90486 517.72594,272.5925 517.72594,278.41525 L 517.72594,290.45964 L 517.22498,290.44795 L 405.84548,290.45963 z"/><path style="fill:none;fill-opacity:1;fill-rule:evenodd;stroke:#000;stroke-width:.66122991;stroke-linecap:butt;stroke-linejoin:miter;stroke-miterlimit:4;stroke-dasharray:none;stroke-dashoffset:0;stroke-opacity:1" id="path3692" d="M 517.72594,290.62663 L 517.72594,369.44192 C 517.72594,375.26468 513.0383,379.95231 507.21555,379.95231 L 416.35587,379.9523 C 410.53311,379.95231 405.84548,375.26468 405.84548,369.44192 L 405.84548,290.62662"/><text style="font-size:14.54705811px;font-style:normal;font-weight:700;fill:#000;fill-opacity:1;stroke:none;stroke-width:1px;stroke-linecap:butt;stroke-linejoin:miter;stroke-opacity:1;font-family:DejaVu Sans Mono" id="text3694" x="434.901" y="284.437" xml:space="preserve"><tspan id="tspan3696" x="434.901" y="284.437">dentry</tspan></text><text style="font-size:11.56725216px;font-style:normal;font-weight:700;fill:#000;fill-opacity:1;stroke:none;stroke-width:1px;stroke-linecap:butt;stroke-linejoin:miter;stroke-opacity:1;font-family:DejaVu Sans Mono" id="text3698" x="434.207" y="313.497" xml:space="preserve"><tspan id="tspan3700" x="434.207" y="313.497">d_inode</tspan></text><path style="fill:#80b3ff;fill-opacity:1;fill-rule:evenodd;stroke:#000;stroke-width:.66122991;stroke-linecap:butt;stroke-linejoin:miter;stroke-miterlimit:4;stroke-dasharray:none;stroke-dashoffset:0;stroke-opacity:1" id="path3702" d="M 646.55978,291.1739 L 646.55978,279.12953 C 646.55978,273.30677 651.24741,268.61914 657.07017,268.61914 L 657.07017,268.61914 L 747.92984,268.61914 C 753.7526,268.61914 758.44022,273.30677 758.44022,279.12953 L 758.44022,291.17392 L 757.93927,291.16221 L 646.55978,291.1739 z"/><path style="fill:none;fill-opacity:1;fill-rule:evenodd;stroke:#000;stroke-width:.66122991;stroke-linecap:butt;stroke-linejoin:miter;stroke-miterlimit:4;stroke-dasharray:none;stroke-dashoffset:0;stroke-opacity:1" id="path3704" d="M 758.44023,291.3409 L 758.44022,370.15619 C 758.44023,375.97895 753.75261,380.66658 747.92985,380.66658 L 657.07018,380.66657 C 651.24742,380.66658 646.55978,375.97895 646.55978,370.15619 L 646.55978,291.34088"/><text style="font-size:14.54705811px;font-style:normal;font-weight:700;fill:#000;fill-opacity:1;stroke:none;stroke-width:1px;stroke-linecap:butt;stroke-linejoin:miter;stroke-opacity:1;font-family:DejaVu Sans Mono" id="text3706" x="679.289" y="285.151" xml:space="preserve"><tspan id="tspan3708" x="679.289" y="285.151">inode</tspan></text><path style="fill:none;fill-rule:evenodd;stroke:#000;stroke-width:1px;stroke-linecap:butt;stroke-linejoin:miter;marker-end:url(#Arrow2Lend);stroke-opacity:1" id="path3710" d="M 256.78571,311.78572 L 404.64285,311.07144"/><path style="fill:none;fill-rule:evenodd;stroke:#000;stroke-width:1px;stroke-linecap:butt;stroke-linejoin:miter;marker-end:url(#Arrow2Lend);stroke-opacity:1" id="path3712" d="M 486.07143,309.64287 L 645.35714,309.64287"/><text style="font-size:12px;font-style:normal;font-weight:700;fill:#000;fill-opacity:1;stroke:none;stroke-width:1px;stroke-linecap:butt;stroke-linejoin:miter;stroke-opacity:1;font-family:DejaVu Sans Mono" id="text3714" x="75" y="142.857" xml:space="preserve"><tspan id="tspan3716" x="75" y="142.857">private_data</tspan></text><text style="font-size:12px;font-style:normal;font-weight:700;fill:#000;fill-opacity:1;stroke:none;stroke-width:1px;stroke-linecap:butt;stroke-linejoin:miter;stroke-opacity:1;font-family:DejaVu Sans Mono" id="text3718" x="322.326" y="146.32" xml:space="preserve"><tspan id="tspan3720" x="322.326" y="146.32">d_fsdata</tspan></text><text style="font-size:12px;font-style:normal;font-weight:700;fill:#000;fill-opacity:1;stroke:none;stroke-width:1px;stroke-linecap:butt;stroke-linejoin:miter;stroke-opacity:1;font-family:DejaVu Sans Mono" id="text3731" x="560.51" y="146.715" xml:space="preserve"><tspan id="tspan3733" x="560.51" y="146.715">i_private</tspan></text><path style="fill:none;fill-rule:evenodd;stroke:#000;stroke-width:1px;stroke-linecap:butt;stroke-linejoin:miter;stroke-opacity:1;marker-end:url(#Arrow2Lend)" id="path3735" d="M 164.28571,138.57143 L 215.71429,138.57143 L 216.42857,266.42857"/><path style="fill:none;fill-rule:evenodd;stroke:#000;stroke-width:1px;stroke-linecap:butt;stroke-linejoin:miter;stroke-opacity:1;marker-end:url(#Arrow2Lend)" id="path3737" d="M 382.85714,142.85714 L 448.57143,142.85714 L 449.28571,266.42857"/><path style="fill:none;fill-rule:evenodd;stroke:#000;stroke-width:1px;stroke-linecap:butt;stroke-linejoin:miter;stroke-opacity:1;marker-end:url(#Arrow2Lend)" id="path3739" d="M 628.57143,143.57143 L 688.57143,143.57143 L 688.57143,267.85714"/><path style="fill:none;fill-rule:evenodd;stroke:#000;stroke-width:1;stroke-linecap:butt;stroke-linejoin:miter;stroke-opacity:1;stroke-miterlimit:4;stroke-dasharray:2,4;stroke-dashoffset:0" id="path4710" d="M 8.5714286,220.71429 L 789.28572,218.57143"/><text style="font-size:18px;font-style:normal;font-weight:700;fill:#000;fill-opacity:1;stroke:none;stroke-width:1px;stroke-linecap:butt;stroke-linejoin:miter;stroke-opacity:1;font-family:DejaVu Sans Mono" id="text5681" x="8.571" y="20.714" xml:space="preserve"><tspan id="tspan5683" x="8.571" y="20.714">FiST based filesystem</tspan></text><text style="font-size:18px;font-style:normal;font-weight:700;fill:#000;fill-opacity:1;stroke:none;stroke-width:1px;stroke-linecap:butt;stroke-linejoin:miter;stroke-opacity:1;font-family:DejaVu Sans Mono" id="text5685" x="8.571" y="430" xml:space="preserve"><tspan id="tspan5687" x="8.571" y="430">Lower filesystem</tspan></text></g></svg>