<svg xmlns="http://www.w3.org/2000/svg" xmlns:cc="http://web.resource.org/cc/" xmlns:svg="http://www.w3.org/2000/svg" id="svg6585" width="800" height="450" version="1.0"><defs id="defs6587"><marker id="Arrow2Lstart" orient="auto" refX="0" refY="0" style="overflow:visible"><path id="path4147" d="M 8.7185878,4.0337352 L -2.2072895,0.016013256 L 8.7185884,-4.0017078 C 6.9730900,-1.6296469 6.9831476,1.6157441 8.7185878,4.0337352 z" transform="scale(1.1) translate(1,0)" style="font-size:12;fill-rule:evenodd;stroke-width:.625;stroke-linejoin:round"/></marker><marker id="Arrow2Lend" orient="auto" refX="0" refY="0" style="overflow:visible"><path id="path4150" d="M 8.7185878,4.0337352 L -2.2072895,0.016013256 L 8.7185884,-4.0017078 C 6.9730900,-1.6296469 6.9831476,1.6157441 8.7185878,4.0337352 z" transform="scale(1.1) rotate(180) translate(1,0)" style="font-size:12;fill-rule:evenodd;stroke-width:.625;stroke-linejoin:round"/></marker></defs><metadata id="metadata6590"/><g id="layer1" transform="translate(-78.896569,-394.17508)"><path style="fill:#fc0;fill-opacity:1;fill-rule:evenodd;stroke:#000;stroke-width:.66122991;stroke-linecap:butt;stroke-linejoin:miter;stroke-miterlimit:4;stroke-dasharray:none;stroke-dashoffset:0;stroke-opacity:1" id="path2231" d="M 422.76711,426.52378 L 422.76711,414.4794 C 422.76711,408.65665 427.45473,403.96901 433.27748,403.96901 L 433.27748,403.96901 L 524.13717,403.96901 C 529.95992,403.96901 534.64757,408.65665 534.64757,414.4794 L 534.64757,426.52379 L 534.14661,426.5121 L 422.76711,426.52378 z"/><path style="fill:none;fill-opacity:1;fill-rule:evenodd;stroke:#000;stroke-width:.66122991;stroke-linecap:butt;stroke-linejoin:miter;stroke-miterlimit:4;stroke-dasharray:none;stroke-dashoffset:0;stroke-opacity:1" id="rect2162" d="M 534.64757,426.69078 L 534.64757,505.50607 C 534.64757,511.32883 529.95993,516.01646 524.13718,516.01646 L 433.2775,516.01645 C 427.45474,516.01646 422.76711,511.32883 422.76711,505.50607 L 422.76711,426.69077"/><text style="font-size:14.54705811px;font-style:normal;font-weight:700;fill:#000;fill-opacity:1;stroke:none;stroke-width:1px;stroke-linecap:butt;stroke-linejoin:miter;stroke-opacity:1;font-family:DejaVu Sans Mono" id="text2241" x="451.823" y="420.501" xml:space="preserve"><tspan id="tspan2243" x="451.823" y="420.501">dentry</tspan></text><path style="fill:#55d400;fill-opacity:1;fill-rule:evenodd;stroke:#000;stroke-width:.66122991;stroke-linecap:butt;stroke-linejoin:miter;stroke-miterlimit:4;stroke-dasharray:none;stroke-dashoffset:0;stroke-opacity:1" id="path2249" d="M 88.761608,423.12754 L 88.761608,411.08315 C 88.761608,405.2604 93.449235,400.57277 99.271994,400.57277 L 99.271994,400.57277 L 190.13167,400.57277 C 195.95442,400.57277 200.64206,405.2604 200.64206,411.08316 L 200.64206,423.12754 L 200.14111,423.11586 L 88.761608,423.12754 z"/><path style="fill:none;fill-opacity:1;fill-rule:evenodd;stroke:#000;stroke-width:.66122991;stroke-linecap:butt;stroke-linejoin:miter;stroke-miterlimit:4;stroke-dasharray:none;stroke-dashoffset:0;stroke-opacity:1" id="path2251" d="M 200.64206,423.29454 L 200.64206,502.10982 C 200.64206,507.93258 195.95443,512.62021 190.13167,512.62021 L 99.271994,512.6202 C 93.449235,512.62021 88.761608,507.93258 88.761608,502.10982 L 88.761608,423.29453"/><text style="font-size:14.54705811px;font-style:normal;font-weight:700;fill:#000;fill-opacity:1;stroke:none;stroke-width:1px;stroke-linecap:butt;stroke-linejoin:miter;stroke-opacity:1;font-family:DejaVu Sans Mono" id="text2253" x="125.165" y="416.77" xml:space="preserve"><tspan id="tspan2255" x="125.165" y="416.77">file</tspan></text><path style="fill:#80b3ff;fill-opacity:1;fill-rule:evenodd;stroke:#000;stroke-width:.66122991;stroke-linecap:butt;stroke-linejoin:miter;stroke-miterlimit:4;stroke-dasharray:none;stroke-dashoffset:0;stroke-opacity:1" id="path2259" d="M 737.11855,566.92493 L 737.11855,554.88056 C 737.11855,549.0578 741.80618,544.37017 747.62894,544.37017 L 747.62894,544.37017 L 838.48861,544.37017 C 844.31137,544.37017 848.99899,549.0578 848.99899,554.88056 L 848.99899,566.92495 L 848.49804,566.91324 L 737.11855,566.92493 z"/><path style="fill:none;fill-opacity:1;fill-rule:evenodd;stroke:#000;stroke-width:.66122991;stroke-linecap:butt;stroke-linejoin:miter;stroke-miterlimit:4;stroke-dasharray:none;stroke-dashoffset:0;stroke-opacity:1" id="path2261" d="M 848.999,567.09193 L 848.99899,645.90722 C 848.999,651.72998 844.31138,656.41761 838.48862,656.41761 L 747.62895,656.4176 C 741.80619,656.41761 737.11855,651.72998 737.11855,645.90722 L 737.11855,567.09191"/><text style="font-size:14.54705811px;font-style:normal;font-weight:700;fill:#000;fill-opacity:1;stroke:none;stroke-width:1px;stroke-linecap:butt;stroke-linejoin:miter;stroke-opacity:1;font-family:DejaVu Sans Mono" id="text2263" x="769.848" y="560.902" xml:space="preserve"><tspan id="tspan2265" x="769.848" y="560.902">inode</tspan></text><text style="font-size:11.56725216px;font-style:normal;font-weight:700;fill:#000;fill-opacity:1;stroke:none;stroke-width:1px;stroke-linecap:butt;stroke-linejoin:miter;stroke-opacity:1;font-family:DejaVu Sans Mono" id="text7582" x="114.564" y="465.493" xml:space="preserve"><tspan id="tspan7584" x="114.564" y="465.493">f_dentry</tspan></text><text style="font-size:11.56725216px;font-style:normal;font-weight:700;fill:#000;fill-opacity:1;stroke:none;stroke-width:1px;stroke-linecap:butt;stroke-linejoin:miter;stroke-opacity:1;font-family:DejaVu Sans Mono" id="text8557" x="453.128" y="455.561" xml:space="preserve"><tspan id="tspan8559" x="453.128" y="455.561">d_inode</tspan></text><path style="fill:#55d400;fill-opacity:1;fill-rule:evenodd;stroke:#000;stroke-width:.66122991;stroke-linecap:butt;stroke-linejoin:miter;stroke-miterlimit:4;stroke-dasharray:none;stroke-dashoffset:0;stroke-opacity:1" id="path8569" d="M 87.891584,577.06393 L 87.891584,565.01954 C 87.891584,559.19679 92.579211,554.50917 98.401971,554.50917 L 98.401971,554.50917 L 189.26164,554.50917 C 195.08439,554.50917 199.77203,559.19679 199.77203,565.01955 L 199.77203,577.06393 L 199.27107,577.05224 L 87.891584,577.06393 z"/><path style="fill:none;fill-opacity:1;fill-rule:evenodd;stroke:#000;stroke-width:.66122991;stroke-linecap:butt;stroke-linejoin:miter;stroke-miterlimit:4;stroke-dasharray:none;stroke-dashoffset:0;stroke-opacity:1" id="path8571" d="M 199.77203,577.23092 L 199.77203,656.04621 C 199.77203,661.86897 195.0844,666.5566 189.26164,666.5566 L 98.401971,666.55659 C 92.579211,666.5566 87.891584,661.86897 87.891584,656.04621 L 87.891584,577.23091"/><text style="font-size:14.54705811px;font-style:normal;font-weight:700;fill:#000;fill-opacity:1;stroke:none;stroke-width:1px;stroke-linecap:butt;stroke-linejoin:miter;stroke-opacity:1;font-family:DejaVu Sans Mono" id="text8573" x="124.294" y="570.707" xml:space="preserve"><tspan id="tspan8575" x="124.294" y="570.707">file</tspan></text><text style="font-size:11.56725216px;font-style:normal;font-weight:700;fill:#000;fill-opacity:1;stroke:none;stroke-width:1px;stroke-linecap:butt;stroke-linejoin:miter;stroke-opacity:1;font-family:DejaVu Sans Mono" id="text8577" x="112.526" y="621.182" xml:space="preserve"><tspan id="tspan8579" x="112.526" y="621.182">f_dentry</tspan></text><path style="fill:#55d400;fill-opacity:1;fill-rule:evenodd;stroke:#000;stroke-width:.66122991;stroke-linecap:butt;stroke-linejoin:miter;stroke-miterlimit:4;stroke-dasharray:none;stroke-dashoffset:0;stroke-opacity:1" id="path8581" d="M 86.138897,745.32344 L 86.138897,733.27905 C 86.138897,727.4563 90.826524,722.76867 96.649284,722.76867 L 96.649284,722.76867 L 187.50896,722.76867 C 193.3317,722.76867 198.01935,727.4563 198.01935,733.27906 L 198.01935,745.32344 L 197.5184,745.31176 L 86.138897,745.32344 z"/><path style="fill:none;fill-opacity:1;fill-rule:evenodd;stroke:#000;stroke-width:.66122991;stroke-linecap:butt;stroke-linejoin:miter;stroke-miterlimit:4;stroke-dasharray:none;stroke-dashoffset:0;stroke-opacity:1" id="path8583" d="M 198.01935,745.49043 L 198.01935,824.30572 C 198.01935,830.12848 193.33171,834.8161 187.50896,834.8161 L 96.649284,834.81609 C 90.826524,834.8161 86.138897,830.12848 86.138897,824.30572 L 86.138897,745.49041"/><text style="font-size:14.54705811px;font-style:normal;font-weight:700;fill:#000;fill-opacity:1;stroke:none;stroke-width:1px;stroke-linecap:butt;stroke-linejoin:miter;stroke-opacity:1;font-family:DejaVu Sans Mono" id="text8585" x="122.542" y="738.966" xml:space="preserve"><tspan id="tspan8587" x="122.542" y="738.966">file</tspan></text><text style="font-size:11.56725216px;font-style:normal;font-weight:700;fill:#000;fill-opacity:1;stroke:none;stroke-width:1px;stroke-linecap:butt;stroke-linejoin:miter;stroke-opacity:1;font-family:DejaVu Sans Mono" id="text8589" x="110.773" y="791.779" xml:space="preserve"><tspan id="tspan8591" x="110.773" y="791.779">f_dentry</tspan></text><path style="fill:#fc0;fill-opacity:1;fill-rule:evenodd;stroke:#000;stroke-width:.66122991;stroke-linecap:butt;stroke-linejoin:miter;stroke-miterlimit:4;stroke-dasharray:none;stroke-dashoffset:0;stroke-opacity:1" id="path8593" d="M 417.98406,661.77792 L 417.98406,649.73354 C 417.98406,643.91079 422.67168,639.22315 428.49444,639.22315 L 428.49444,639.22315 L 519.35412,639.22315 C 525.17688,639.22315 529.86452,643.91079 529.86452,649.73354 L 529.86452,661.77793 L 529.36356,661.76624 L 417.98406,661.77792 z"/><path style="fill:none;fill-opacity:1;fill-rule:evenodd;stroke:#000;stroke-width:.66122991;stroke-linecap:butt;stroke-linejoin:miter;stroke-miterlimit:4;stroke-dasharray:none;stroke-dashoffset:0;stroke-opacity:1" id="path8595" d="M 529.86452,661.94492 L 529.86452,740.76021 C 529.86452,746.58297 525.17689,751.2706 519.35413,751.2706 L 428.49445,751.27059 C 422.67169,751.2706 417.98406,746.58297 417.98406,740.76021 L 417.98406,661.94489"/><text style="font-size:14.54705811px;font-style:normal;font-weight:700;fill:#000;fill-opacity:1;stroke:none;stroke-width:1px;stroke-linecap:butt;stroke-linejoin:miter;stroke-opacity:1;font-family:DejaVu Sans Mono" id="text8597" x="447.04" y="655.755" xml:space="preserve"><tspan id="tspan8599" x="447.04" y="655.755">dentry</tspan></text><text style="font-size:11.56725216px;font-style:normal;font-weight:700;fill:#000;fill-opacity:1;stroke:none;stroke-width:1px;stroke-linecap:butt;stroke-linejoin:miter;stroke-opacity:1;font-family:DejaVu Sans Mono" id="text8601" x="448.345" y="724.117" xml:space="preserve"><tspan id="tspan8603" x="448.345" y="724.117">d_inode</tspan></text><path style="fill:none;fill-rule:evenodd;stroke:#000;stroke-width:1.15672517px;stroke-linecap:butt;stroke-linejoin:miter;stroke-opacity:1" id="path8615" d="M 667.30589,753.67032 L 667.30589,753.67032"/><text style="font-size:11.56725216px;font-style:normal;font-weight:700;fill:#000;fill-opacity:1;stroke:none;stroke-width:1px;stroke-linecap:butt;stroke-linejoin:miter;stroke-opacity:1;font-family:DejaVu Sans Mono" id="text9592" x="453.055" y="491.766" xml:space="preserve"><tspan id="tspan9594" x="453.055" y="491.766">d_alias</tspan></text><text style="font-size:11.56725216px;font-style:normal;font-weight:700;fill:#000;fill-opacity:1;stroke:none;stroke-width:1px;stroke-linecap:butt;stroke-linejoin:miter;stroke-opacity:1;font-family:DejaVu Sans Mono" id="text9596" x="449.782" y="684.563" xml:space="preserve"><tspan id="tspan9598" x="449.782" y="684.563">d_alias</tspan></text><text style="font-size:11.56725216px;font-style:normal;font-weight:700;fill:#000;fill-opacity:1;stroke:none;stroke-width:1px;stroke-linecap:butt;stroke-linejoin:miter;stroke-opacity:1;font-family:DejaVu Sans Mono" id="text9600" x="763.798" y="608.029" xml:space="preserve"><tspan id="tspan9602" x="763.798" y="608.029">i_dentry</tspan></text><path style="fill:none;fill-rule:evenodd;stroke:#000;stroke-width:1.15672517;stroke-linecap:butt;stroke-linejoin:miter;marker-start:url(#Arrow2Lstart);marker-end:url(#Arrow2Lend);stroke-miterlimit:4;stroke-dasharray:1.15672521,2.31345041;stroke-dashoffset:0;stroke-opacity:1" id="path10577" d="M 823.88073,604.69053 L 871.78795,604.1063 L 871.20372,684.14642 L 501.38331,681.80948"/><path style="fill:none;fill-rule:evenodd;stroke:#000;stroke-width:1.15672517;stroke-linecap:butt;stroke-linejoin:miter;marker-start:url(#Arrow2Lstart);marker-end:url(#Arrow2Lend);stroke-miterlimit:4;stroke-dasharray:1.15672521,2.31345041;stroke-dashoffset:0;stroke-opacity:1" id="path10579" d="M 444.71256,681.22525 L 382.78371,681.22525 L 382.78371,488.42787 L 450.55491,488.42787"/><path style="fill:none;fill-rule:evenodd;stroke:#000;stroke-width:1.15672517;stroke-linecap:butt;stroke-linejoin:miter;marker-start:url(#Arrow2Lstart);marker-end:url(#Arrow2Lend);stroke-miterlimit:4;stroke-dasharray:1.15672521,2.31345041;stroke-dashoffset:0;stroke-opacity:1" id="path10585" d="M 503.72024,488.42787 L 550.459,489.01211 L 551.62748,604.69053 L 761.36764,604.69054"/><path style="fill:none;fill-rule:evenodd;stroke:#000;stroke-width:1.15672517px;stroke-linecap:butt;stroke-linejoin:miter;marker-end:url(#Arrow2Lend);stroke-opacity:1" id="path11558" d="M 504.30449,452.20534 L 669.64283,452.20534 L 670.22707,570.2207 L 736.24556,569.63647"/><path style="fill:none;fill-rule:evenodd;stroke:#000;stroke-width:.99474418px;stroke-linecap:butt;stroke-linejoin:miter;marker-end:url(#Arrow2Lend);stroke-opacity:1" id="path11560" d="M 504.50016,722.78278 L 669.97599,722.78278 L 670.56071,635.57808 L 736.63411,636.00978"/><path style="fill:none;fill-rule:evenodd;stroke:#000;stroke-width:1.15672517px;stroke-linecap:butt;stroke-linejoin:miter;marker-end:url(#Arrow2Lend);stroke-opacity:1" id="path11564" d="M 168.36966,618.71215 L 266.52106,619.2964 L 266.52106,695.24688 L 417.25354,695.24688"/><path style="fill:none;fill-rule:evenodd;stroke:#000;stroke-width:1.15672517px;stroke-linecap:butt;stroke-linejoin:miter;marker-end:url(#Arrow2Lend);stroke-opacity:1" id="path11566" d="M 168.95391,789.30863 L 266.52106,789.30863 L 267.10529,723.87437 L 416.6693,723.29013"/><path style="fill:none;fill-rule:evenodd;stroke:#000;stroke-width:1.15672517px;stroke-linecap:butt;stroke-linejoin:miter;marker-end:url(#Arrow2Lend);stroke-opacity:1" id="path11568" d="M 173.04354,462.13732 L 421.92742,462.72156"/></g></svg>